<?xml version="1.0" encoding="UTF-8"?>
<svg width="30px" height="30px" viewBox="0 0 30 30" version="1.1" xmlns="http://www.w3.org/2000/svg" xmlns:xlink="http://www.w3.org/1999/xlink">
    <!-- Generator: Sketch 63.1 (92452) - https://sketch.com -->
    <title>icons8-dribbble</title>
    <desc>Created with Sketch.</desc>
    <g id="Contact" stroke="none" stroke-width="1" fill="none" fill-rule="evenodd">
        <g id="Contact-D" transform="translate(-810.000000, -605.000000)" fill="#FFFFFF" fill-rule="nonzero">
            <g id="Contact-Popup" transform="translate(370.000000, 170.000000)">
                <g id="Social" transform="translate(160.000000, 435.000000)">
                    <g id="icons8-dribbble" transform="translate(280.000000, 0.000000)">
                        <path d="M15,0 C6.72851625,0 0,6.72851625 0,15 C0,23.271485 6.72851625,30 15,30 C23.271485,30 30,23.271485 30,15 C30,6.72851625 23.271485,0 15,0 Z M15,2.5 C18.168945,2.5 21.0400388,3.69140625 23.2421875,5.625 C23.0078125,5.95214875 22.69043,6.34765625 22.1875,6.8359375 C21.1181638,7.87109375 19.40918,9.11621125 16.796875,10.078125 C15.0292975,6.81152375 13.2958987,4.35546875 12.1484375,2.8125 C13.0615237,2.60253875 14.018555,2.5 15,2.5 Z M9.6875,3.671875 C10.7128913,5.01464875 12.5390625,7.5048825 14.375,10.8203125 C9.2919925,12.1679688 4.62890625,12.3388675 2.7734375,12.34375 C3.60351625,8.481445 6.2011725,5.302735 9.6875,3.671875 Z M24.9609375,7.4609375 C26.484375,9.47753875 27.4316413,11.9726563 27.5,14.6875 C26.3867188,14.4384763 24.7460938,14.1943363 22.6171875,14.1796875 C21.5087888,14.174805 20.2539062,14.25293 18.90625,14.4140625 C18.59375,13.7011725 18.2568362,13.012695 17.9296875,12.34375 C20.7324225,11.2695313 22.6416013,9.85351625 23.90625,8.6328125 C24.3359375,8.21289125 24.6728513,7.82714875 24.9609375,7.4609375 Z M15.5078125,13.0859375 C15.7958987,13.6669925 16.0888675,14.262695 16.3671875,14.8828125 C11.0253913,16.362305 7.1875,20.893555 5.546875,23.1640625 C3.65722625,20.9765625 2.5,18.125 2.5,15 C2.5,14.9462888 2.5,14.8974612 2.5,14.84375 C4.18945375,14.8632812 9.5605475,14.7460938 15.5078125,13.0859375 Z M22.6171875,16.640625 C24.8486325,16.640625 26.3916013,16.953125 27.3046875,17.1875 C26.7236325,20.5175787 24.84375,23.3740237 22.1875,25.234375 C21.6894538,22.2460938 20.8691413,19.4042975 19.8828125,16.796875 C20.8691413,16.6992188 21.8017575,16.640625 22.6171875,16.640625 Z M17.34375,17.2265625 C18.4667975,20.078125 19.40918,23.2080075 19.8828125,26.5234375 C18.3886725,27.15332 16.7285162,27.5 15,27.5 C12.1337888,27.5 9.487305,26.5380862 7.3828125,24.921875 C8.6669925,23.1640625 12.4414062,18.4863287 17.34375,17.2265625 Z" id="Shape"></path>
                    </g>
                </g>
            </g>
        </g>
    </g>
</svg>