<?xml version="1.0" encoding="UTF-8"?>
<svg width="30px" height="30px" viewBox="0 0 30 30" version="1.1" xmlns="http://www.w3.org/2000/svg" xmlns:xlink="http://www.w3.org/1999/xlink">
    <!-- Generator: Sketch 63.1 (92452) - https://sketch.com -->
    <title>icons8-facebook</title>
    <desc>Created with Sketch.</desc>
    <g id="Contact" stroke="none" stroke-width="1" fill="none" fill-rule="evenodd">
        <g id="Contact-D" transform="translate(-670.000000, -605.000000)" fill="#FFFFFF" fill-rule="nonzero">
            <g id="Contact-Popup" transform="translate(370.000000, 170.000000)">
                <g id="Social" transform="translate(160.000000, 435.000000)">
                    <g id="icons8-facebook" transform="translate(140.000000, 0.000000)">
                        <path d="M27.2509763,0 L2.74902375,0 C1.25,0 0,1.25 0,2.74902375 L0,27.2509763 C0,28.75 1.25,30 2.74902375,30 L15,30 L15,17.5 L11.25,17.5 L11.25,13.75 L15,13.75 L15,10 C15,6.875 16.25,5 20,5 L23.75,5 L23.75,8.75 L22.1240237,8.75 C21.0009763,8.75 20,9.75097625 20,10.8740237 L20,13.75 L25,13.75 L24.375,17.5 L20,17.5 L20,30 L27.2509763,30 C28.75,30 30,28.75 30,27.2509763 L30,2.74902375 C30,1.25 28.75,0 27.2509763,0 Z" id="Path"></path>
                    </g>
                </g>
            </g>
        </g>
    </g>
</svg>