<?xml version="1.0" encoding="UTF-8"?>
<svg width="30px" height="30px" viewBox="0 0 30 30" version="1.1" xmlns="http://www.w3.org/2000/svg" xmlns:xlink="http://www.w3.org/1999/xlink">
    <!-- Generator: Sketch 63.1 (92452) - https://sketch.com -->
    <title>icons8-instagram</title>
    <desc>Created with Sketch.</desc>
    <g id="Contact" stroke="none" stroke-width="1" fill="none" fill-rule="evenodd">
        <g id="Contact-D" transform="translate(-530.000000, -605.000000)" fill="#FFFFFF" fill-rule="nonzero">
            <g id="Contact-Popup" transform="translate(370.000000, 170.000000)">
                <g id="Social" transform="translate(160.000000, 435.000000)">
                    <g id="icons8-instagram">
                        <path d="M8.82102273,0 C3.97904864,0 0,3.97372227 0,8.82102273 L0,21.1789773 C0,26.0209514 3.97372227,30 8.82102273,30 L21.1789773,30 C26.0209514,30 30,26.0262791 30,21.1789773 L30,8.82102273 C30,3.97904864 26.0262791,0 21.1789773,0 L8.82102273,0 Z M8.82102273,2.72727273 L21.1789773,2.72727273 C24.5507809,2.72727273 27.2727273,5.44921909 27.2727273,8.82102273 L27.2727273,21.1789773 C27.2727273,24.5507809 24.5507809,27.2727273 21.1789773,27.2727273 L8.82102273,27.2727273 C5.44921909,27.2727273 2.72727273,24.5507809 2.72727273,21.1789773 L2.72727273,8.82102273 C2.72727273,5.44921909 5.44921909,2.72727273 8.82102273,2.72727273 Z M23.0539773,5.71022727 C22.3668327,5.71022727 21.8181818,6.25887818 21.8181818,6.94602273 C21.8181818,7.63316727 22.3668327,8.18181818 23.0539773,8.18181818 C23.7411218,8.18181818 24.2897727,7.63316727 24.2897727,6.94602273 C24.2897727,6.25887818 23.7411218,5.71022727 23.0539773,5.71022727 Z M15,6.81818182 C10.498935,6.81818182 6.81818182,10.498935 6.81818182,15 C6.81818182,19.501065 10.498935,23.1818182 15,23.1818182 C19.501065,23.1818182 23.1818182,19.501065 23.1818182,15 C23.1818182,10.498935 19.501065,6.81818182 15,6.81818182 Z M15,9.54545455 C18.0308945,9.54545455 20.4545455,11.9691055 20.4545455,15 C20.4545455,18.0308945 18.0308945,20.4545455 15,20.4545455 C11.9691055,20.4545455 9.54545455,18.0308945 9.54545455,15 C9.54545455,11.9691055 11.9691055,9.54545455 15,9.54545455 Z" id="Shape"></path>
                    </g>
                </g>
            </g>
        </g>
    </g>
</svg>