<?xml version="1.0" encoding="UTF-8"?>
<svg width="30px" height="26px" viewBox="0 0 30 26" version="1.1" xmlns="http://www.w3.org/2000/svg" xmlns:xlink="http://www.w3.org/1999/xlink">
    <!-- Generator: Sketch 63.1 (92452) - https://sketch.com -->
    <title>icons8-medium</title>
    <desc>Created with Sketch.</desc>
    <g id="Contact" stroke="none" stroke-width="1" fill="none" fill-rule="evenodd">
        <g id="Contact-D" transform="translate(-600.000000, -607.000000)" fill="#FFFFFF" fill-rule="nonzero">
            <g id="Contact-Popup" transform="translate(370.000000, 170.000000)">
                <g id="Social" transform="translate(160.000000, 435.000000)">
                    <g id="icons8-medium" transform="translate(70.000000, 2.000000)">
                        <path d="M29.52288,4.82561357 C29.4601007,4.74609429 29.4015064,4.67075893 29.3345421,4.59960964 C29.2801339,4.54520143 29.2299107,4.49079214 29.1713175,4.444755 C29.0290179,4.32338143 28.8783482,4.21038 28.7025675,4.12667464 L20.9430804,0.305524286 C20.7463725,0.209263929 20.5329246,0.133928571 20.3152907,0.0837053571 C20.0892857,0.0292971429 19.8549107,0 19.6205357,0 C18.5825893,0 17.5948661,0.539899286 17.0507818,1.410435 L15.9751671,3.13476536 L13.5016746,7.08984429 L12.5516186,4.99302429 C12.3172436,4.62472071 12.0033482,4.34430857 11.6308596,4.16015679 C11.6308596,4.16015679 4.27315821,0.539899286 4.27315821,0.539899286 L4.03878321,0.422711786 C3.60770143,0.209263929 3.1598775,0.104631429 2.70786857,0.104631429 C1.163505,0.104631429 0,1.31417464 0,2.9213175 L0,19.0304132 C0,20.2776225 0.782645357,21.5332029 1.90848214,22.0856582 L8.57979964,25.3710943 C9.04436357,25.5970982 9.52566964,25.7142857 10.0111607,25.7142857 C11.6308596,25.7142857 12.8571429,24.4294082 12.8571429,22.726005 L12.8571429,19.0345982 L17.1428571,21.1439732 L25.0906811,25.0571989 L25.4840957,25.2539068 C26.01981,25.5175779 26.5680804,25.6515064 27.1037946,25.6515064 C28.7569757,25.6515064 30,24.3917411 30,22.726005 L30,6.2109375 C30,5.69196429 29.8158482,5.21902929 29.52288,4.82561357 Z M10.7142857,15.5943086 L10.7142857,22.726005 C10.7142857,23.2533482 10.4255025,23.5714286 10.0111607,23.5714286 C9.86049107,23.5714286 9.70145143,23.5337614 9.52985464,23.4458711 L2.85435321,20.160435 C2.4651225,19.9679132 2.14285714,19.45731 2.14285714,19.0304132 L2.14285714,2.9213175 C2.14285714,2.49860464 2.37723214,2.24748857 2.70786857,2.24748857 C2.82505607,2.24748857 2.95479964,2.27678571 3.09291321,2.34375 L3.32728821,2.4609375 C3.32728821,2.4609375 3.32728821,2.4609375 3.33147321,2.4609375 L10.6849886,6.08119393 C10.6975446,6.089565 10.7059157,6.097935 10.7142857,6.11049107 L10.7142857,15.5943086 Z M13.8030139,17.11356 L12.8571429,16.64481 L12.8571429,10.8440293 L16.2555804,18.3189171 L13.8030139,17.11356 Z M14.5647321,9.42940821 L17.8417971,4.18526786 L18.8671875,2.54464286 C19.0304132,2.28934179 19.3233814,2.14285714 19.6205357,2.14285714 C19.6456479,2.14285714 19.6665739,2.15541321 19.691685,2.15959821 C19.7963175,2.16796929 19.9009489,2.18052429 19.9972104,2.2265625 L27.7566964,6.04771179 C27.7901786,6.06445286 27.7901786,6.10212107 27.8069196,6.13560321 C27.8069196,6.15234429 27.8111046,6.16908536 27.8027346,6.18582643 L21.3741632,16.4690293 L19.2857143,19.8130586 L14.5647321,9.42940821 Z M27.8571429,22.726005 C27.8571429,23.2240511 27.5516186,23.5086493 27.1037946,23.5086493 C26.9029018,23.5086493 26.6768979,23.4500561 26.4341518,23.3286836 L24.4084821,22.3325893 L21.2193086,20.7631136 L21.8136161,19.8130586 L27.8571429,10.1409043 L27.8571429,22.726005 Z" id="Shape"></path>
                    </g>
                </g>
            </g>
        </g>
    </g>
</svg>