<?xml version="1.0" encoding="UTF-8"?>
<svg width="30px" height="25px" viewBox="0 0 30 25" version="1.1" xmlns="http://www.w3.org/2000/svg" xmlns:xlink="http://www.w3.org/1999/xlink">
    <!-- Generator: Sketch 63.1 (92452) - https://sketch.com -->
    <title>icons8-twitter</title>
    <desc>Created with Sketch.</desc>
    <g id="Contact" stroke="none" stroke-width="1" fill="none" fill-rule="evenodd">
        <g id="Contact-D" transform="translate(-880.000000, -607.000000)" fill="#FFFFFF" fill-rule="nonzero">
            <g id="Contact-Popup" transform="translate(370.000000, 170.000000)">
                <g id="Social" transform="translate(160.000000, 435.000000)">
                    <g id="icons8-twitter" transform="translate(350.000000, 2.000000)">
                        <path d="M30,3.1982425 C28.896485,3.68652375 27.7099612,4.018555 26.4648438,4.16503875 C27.734375,3.40332 28.7109375,2.19726625 29.1699225,0.76171875 C27.9833987,1.46484375 26.6650388,1.97753875 25.2636725,2.25586 C24.140625,1.05957 22.5390625,0.3076175 20.771485,0.3076175 C17.3730475,0.3076175 14.6142575,3.06640625 14.6142575,6.46484375 C14.6142575,6.9482425 14.6679688,7.4169925 14.7753913,7.86621125 C9.65820375,7.612305 5.12207,5.1611325 2.08984375,1.4355475 C1.5576175,2.34375 1.2548825,3.40332 1.2548825,4.53125 C1.2548825,6.66503875 2.3388675,8.549805 3.99414125,9.65332 C2.98339875,9.61914125 2.0361325,9.34570375 1.206055,8.88183625 C1.206055,8.9111325 1.206055,8.9355475 1.206055,8.95996125 C1.206055,11.94336 3.325195,14.4335938 6.14257875,14.9951175 C5.625,15.1367188 5.0830075,15.2148438 4.521485,15.2148438 C4.12597625,15.2148438 3.73535125,15.1757812 3.3642575,15.1025388 C4.1455075,17.5488287 6.42089875,19.3261725 9.11132875,19.3798825 C7.00683625,21.0302737 4.35058625,22.0117188 1.46972625,22.0117188 C0.97168,22.0117188 0.48339875,21.9824225 0,21.9238287 C2.72461,23.671875 5.95703125,24.6923825 9.43359375,24.6923825 C20.7568362,24.6923825 26.9482425,15.3125 26.9482425,7.177735 C26.9482425,6.9140625 26.9384763,6.6455075 26.9287112,6.38183625 C28.1298825,5.512695 29.174805,4.42871125 30,3.1982425 Z" id="Path"></path>
                    </g>
                </g>
            </g>
        </g>
    </g>
</svg>